# File produced by Open Asset Import Library (http://www.assimp.sf.net)
# (assimp v3.1.68452469)

mtllib BossCuerpo.mtl

# 158 vertex positions
v  7.4616 48.9777 9.1016
v  6.4399 57.6541 8.8195
v  5.5462 57.4234 11.7926
v  6.0363 51.5006 12.276
v  8.4928 50.0906 4.4412
v  6.6029 50.0906 0.3392
v  6.0269 57.8372 2.4304
v  3.8067 57.8372 0.3126
v  3.6062 50.0906 0.2419
v  0.8309 50.0906 -0.6894
v  -1.7079 57.8372 0.8434
v  -3.2223 50.0906 0.2931
v  -5.4118 50.0906 2.081
v  -5.3413 57.8372 4.4547
v  -6.4321 50.0906 4.5296
v  -5.0369 50.0906 6.7424
v  6.3892 60.7509 8.8195
v  4.9659 59.836 11.7926
v  5.157 61.3444 3.026
v  6.4477 61.1259 4.4547
v  0.9524 57.8372 0.7984
v  0.8325 61.5729 1.0488
v  3.8067 61.5729 1.5314
v  -3.5463 57.8372 2.7322
v  -3.0882 61.3789 3.0105
v  -1.7079 61.5729 1.5314
v  -4.3979 61.0023 6.61
v  -4.436 61.1895 4.4547
v  4.5098 62.8593 10.2302
v  3.6718 61.3412 11.7926
v  3.5685 64.3129 6.9625
v  4.6587 63.6265 8.0478
v  0.9409 64.4853 5.8272
v  2.428 64.4853 5.8272
v  -1.8444 64.1986 6.9507
v  -0.3293 64.4853 5.8272
v  -2.6101 63.3384 9.1254
v  -2.56 63.7827 8.0478
v  2.2898 62.1844 11.7926
v  4.5862 63.2529 9.1106
v  0.8837 62.7909 11.7926
v  -0.646 62.2558 11.7926
v  -3.5159 57.668 11.7926
v  -3.7487 51.4672 12.276
v  -2.8567 52.0253 11.7926
v  -1.4536 49.9967 11.7926
v  4.9399 57.3984 11.7926
v  4.4126 59.559 11.7926
v  3.3078 60.8831 11.7926
v  2.1146 61.6188 11.7926
v  0.8877 62.1234 11.7926
v  -2.0239 60.9553 11.7926
v  -3.0424 59.8819 11.7926
v  -2.4584 59.6547 11.7926
v  -2.91 57.6733 11.7926
v  8.0885 51.2088 6.7108
v  10.0878 38.2615 7.1309
v  7.7301 38.2449 0.8811
v  0.7174 38.2449 -3.0995
v  -5.9354 38.2449 0.8468
v  -5.8549 50.0906 9.7885
v  -8.2404 38.2449 11.4685
v  3.806 49.8271 11.7926
v  5.9894 38.2894 16.0222
v  -4.4603 57.8372 9.124
v  -4.3474 60.7544 9.4628
v  -2.6764 62.7503 10.5519
v  -8.8358 38.2449 6.5838
v  -5.1086 57.8372 6.61
v  -0.478 61.6839 11.7926
v  -1.1138 51.3838 11.7926
v  1.3276 50.1873 11.7926
v  -3.4384 38.2572 15.7654
v  1.5468 38.2742 14.9985
v  3.4625 51.242 11.7926
v  5.1172 52.0525 11.7926
v  7.7055 57.748 6.5804
v  6.4192 60.9433 6.5804
v  11.0846 38.279 10.3882
v  7.3616 57.8372 4.4547
v  5.5878 38.2449 -1.2107
v  -6.3661 38.2449 13.9116
v  9.7626 38.2449 4.0387
v  9.3983 38.301 14.4925
v  -3.0423 38.2449 -1.9695
v  -9.4976 25.0612 -1.1386
v  2.7149 57.6848 3.762
v  -0.4819 55.5646 3.762
v  0.5557 25.0612 -5.8424
v  6.7816 25.0612 -5.8424
v  8.8049 16.9315 -7.242
v  14.4893 21.9592 3.1948
v  14.3762 16.4607 -0.0404
v  10.6467 25.0612 -1.0892
v  13.9585 25.0851 7.9039
v  14.5288 25.1102 12.5911
v  16.172 19.074 9.169
v  -6.9399 38.2449 4.0387
v  3.9399 25.1251 17.6552
v  13.0471 25.1419 18.497
v  0.5666 59.3758 3.762
v  0.9956 59.6257 3.762
v  2.6645 55.5754 3.762
v  -3.9977 26.1067 -3.7294
v  -4.762 25.0612 -5.8424
v  5.6452 19.2978 -8.6657
v  -7.7751 34.8325 2.1522
v  -12.3039 14.9528 3.4544
v  -9.9055 18.5001 4.6605
v  -10.7924 16.7505 6.6108
v  -5.4242 20.5818 18.497
v  -10.5907 22.4961 16.9144
v  -9.4087 17.3993 19.3406
v  -1.6386 60.5099 11.7926
v  -0.00129986 59.045 3.762
v  1.306 51.6353 11.7926
v  2.0116 55.5732 3.762
v  6.1074 32.5063 -3.2268
v  -10.6311 20.0911 10.8126
v  -11.8323 25.0612 13.9378
v  -9.8578 32.3082 12.5804
v  -4.0785 34.0092 16.6459
v  -7.5359 30.4783 15.1813
v  0.6125 29.9158 18.4941
v  -3.5285 17.2228 19.2608
v  1.6744 25.1132 18.5352
v  5.968 17.5641 20.3035
v  14.3413 25.0612 3.4544
v  -0.5029 57.7933 3.762
v  1.9897 59.0598 3.762
v  -6.538 15.4655 -3.4964
v  -10.3198 20.9355 -2.3118
v  -6.0273 21.8388 -7.5857
v  1.8167 17.1041 -11.4391
v  12.5706 18.1031 21.8992
v  14.65 18.8552 16.1958
v  7.8467 30.4924 -2.0197
v  -0.5757 22.0156 -7.4551
v  -2.2426 16.1844 -10.543
v  12.8541 29.4959 5.3792
v  7.4146 21.6806 19.8871
v  -5.9019 15.8725 -8.0279
v  0.2058 55.567 3.762
v  1.1606 55.5703 3.762
v  3.3414 30.3647 16.8943
v  -2.5221 25.6685 -4.4051
v  12.1922 16.3874 -8.2819
v  12.6627 28.6745 15.032
v  -9.4365 25.8501 15.2676
v  1.4797 59.3501 3.762
v  4.6524 34.9593 16.3369
v  11.2537 19.4794 -4.7855
v  -11.2021 21.9726 16.8183
v  -12.5721 16.8838 13.5528
v  14.1316 16.2233 -5.8885
v  9.9642 25.0612 -5.6507
v  2.5356 58.5374 3.762
v  -0.4294 58.5751 3.762

# 210 UV coordinates
vt 0.3826 0.3091 0
vt 0.4676 0.3374 0
vt 0.4582 0.3686 0
vt 0.3973 0.3524 0
vt 0.4111 0.2656 0
vt 0.4319 0.2243 0
vt 0.4959 0.2739 0
vt 0.5548 0.5884 0
vt 0.501 0.6481 0
vt 0.478 0.6279 0
vt 0.5119 0.5555 0
vt 0.449 0.5963 0
vt 0.4325 0.5739 0
vt 0.4849 0.5191 0
vt 0.4194 0.5515 0
vt 0.4108 0.5266 0
vt 0.4965 0.3428 0
vt 0.4849 0.3757 0
vt 0.526 0.2948 0
vt 0.5124 0.3069 0
vt 0.5315 0.5712 0
vt 0.5484 0.542 0
vt 0.5752 0.5516 0
vt 0.4969 0.5372 0
vt 0.5202 0.5206 0
vt 0.5304 0.5314 0
vt 0.5056 0.4945 0
vt 0.5104 0.51 0
vt 0.5156 0.3622 0
vt 0.506 0.3819 0
vt 0.5409 0.3403 0
vt 0.5266 0.3453 0
vt 0.5595 0.4958 0
vt 0.574 0.4962 0
vt 0.536 0.4879 0
vt 0.5486 0.4955 0
vt 0.525 0.4724 0
vt 0.5286 0.4805 0
vt 0.5227 0.3878 0
vt 0.5213 0.3535 0
vt 0.5368 0.3941 0
vt 0.5557 0.3345 0
vt 0.5492 0.4401 0
vt 0.5329 0.4424 0
vt 0.6333 0.1918 0
vt 0.6952 0.1761 0
vt 0.6914 0.1873 0
vt 0.7148 0.1965 0
vt 0.7169 0.2753 0
vt 0.6563 0.2847 0
vt 0.6552 0.2785 0
vt 0.6304 0.2843 0
vt 0.632 0.278 0
vt 0.6119 0.2744 0
vt 0.6159 0.2696 0
vt 0.6 0.2619 0
vt 0.6055 0.2588 0
vt 0.5975 0.2471 0
vt 0.5905 0.2486 0
vt 0.5926 0.2314 0
vt 0.6029 0.2141 0
vt 0.6117 0.2013 0
vt 0.6153 0.2068 0
vt 0.6345 0.1979 0
vt 0.4134 0.2923 0
vt 0.282 0.2412 0
vt 0.4486 0.1981 0
vt 0.316 0.1731 0
vt 0.3843 0.717 0
vt 0.3262 0.6492 0
vt 0.4029 0.46 0
vt 0.397 0.4972 0
vt 0.2715 0.5346 0
vt 0.3831 0.3793 0
vt 0.2519 0.362 0
vt 0.4694 0.4484 0
vt 0.4747 0.4772 0
vt 0.4945 0.4442 0
vt 0.5004 0.4721 0
vt 0.511 0.442 0
vt 0.5201 0.4613 0
vt 0.2927 0.5845 0
vt 0.4791 0.5009 0
vt 0.5989 0.2319 0
vt 0.7018 0.2031 0
vt 0.7192 0.2247 0
vt 0.2571 0.4645 0
vt 0.3879 0.4349 0
vt 0.2574 0.4102 0
vt 0.3882 0.4053 0
vt 0.7283 0.2486 0
vt 0.7134 0.2482 0
vt 0.7088 0.2665 0
vt 0.4747 0.3135 0
vt 0.5043 0.3241 0
vt 0.2651 0.2746 0
vt 0.4836 0.295 0
vt 0.5142 0.2476 0
vt 0.5416 0.2806 0
vt 0.4276 0.7527 0
vt 0.2633 0.5016 0
vt 0.2956 0.2096 0
vt 0.2521 0.3214 0
vt 0.3552 0.6852 0
vt 0.2021 0.7388 0
vt 0.8102 0.1595 0
vt 0.7548 0.1608 0
vt 0.7491 0.0745 0
vt 0.6345 0.1117 0
vt 0.5952 0.0682 0
vt 0.6841 0.037 0
vt 0.2863 0.8245 0
vt 0.3347 0.87 0
vt 0.2901 0.949 0
vt 0.1272 0.1322 0
vt 0.0889 0.0789 0
vt 0.186 0.0965 0
vt 0.1398 0.1952 0
vt 0.12 0.2414 0
vt 0.0713 0.1831 0
vt 0.3092 0.6153 0
vt 0.113 0.3951 0
vt 0.0997 0.3017 0
vt 0.6735 0.1434 0
vt 0.7164 0.0674 0
vt 0.7208 0.0701 0
vt 0.7709 0.0737 0
vt 0.257 0.778 0
vt 0.2416 0.7999 0
vt 0.268 0.91 0
vt 0.2675 0.6725 0
vt 0.0706 0.7275 0
vt 0.1076 0.6914 0
vt 0.0808 0.6788 0
vt 0.0677 0.4957 0
vt 0.0926 0.5514 0
vt 0.0328 0.5381 0
vt 0.6084 0.2171 0
vt 0.6596 0.1335 0
vt 0.7106 0.0639 0
vt 0.7048 0.2277 0
vt 0.8428 0.134 0
vt 0.827 0.1503 0
vt 0.776 0.0692 0
vt 0.3872 0.8038 0
vt 0.095 0.6238 0
vt 0.1246 0.5691 0
vt 0.2048 0.5511 0
vt 0.2105 0.4726 0
vt 0.1789 0.5173 0
vt 0.162 0.424 0
vt 0.0299 0.4776 0
vt 0.1101 0.4162 0
vt 0.0247 0.3759 0
vt 0.1544 0.1496 0
vt 0.4591 0.771 0
vt 0.4798 0.778 0
vt 0.4695 0.8097 0
vt 0.6996 0.0541 0
vt 0.7317 0.16 0
vt 0.714 0.1574 0
vt 0.7323 0.0729 0
vt 0.1243 0.8318 0
vt 0.1619 0.767 0
vt 0.2084 0.8272 0
vt 0.2134 0.8996 0
vt 0.02 0.3149 0
vt 0.0447 0.2568 0
vt 0.2307 0.0353 0
vt 0.2857 0.1008 0
vt 0.2538 0.1059 0
vt 0.272 0.8518 0
vt 0.2295 0.9141 0
vt 0.1947 0.1874 0
vt 0.0675 0.3573 0
vt 0.1864 0.8899 0
vt 0.4503 0.7949 0
vt 0.4537 0.7856 0
vt 0.5905 0.0242 0
vt 0.6831 0.02 0
vt 0.6837 0.0299 0
vt 0.17 0.397 0
vt 0.2659 0.7937 0
vt 0.3125 0.98 0
vt 0.1482 0.2824 0
vt 0.332 0.1455 0
vt 0.13 0.5402 0
vt 0.7264 0.0715 0
vt 0.4927 0.8016 0
vt 0.218 0.3791 0
vt 0.5909 0.0495 0
vt 0.6999 0.1541 0
vt 0.6867 0.1503 0
vt 0.1431 0.0408 0
vt 0.0845 0.551 0
vt 0.0468 0.6025 0
vt 0.1019 0.02 0
vt 0.6496 0.1263 0
vt 0.2018 0.0511 0
vt 0.74 0.0743 0
vt 0.7053 0.06 0
vt 0.4887 0.8049 0
vt 0.4907 0.7899 0
vt 0.4917 0.7959 0
vt 0.4875 0.7827 0
vt 0.4835 0.8092 0
vt 0.4774 0.8118 0
vt 0.4568 0.7773 0
vt 0.4479 0.8016 0
vt 0.7827 0.0634 0

# 217 vertex normals
vn 0.948 0.1212 0.2944
vn 0.9357 0.1049 0.3367
vn 0.8938 0.1776 -0.4118
vn 0.3182 0.0004 -0.948
vn -0.6226 0.1759 -0.7625
vn -0.8394 0.1233 0.5293
vn 0.9001 0.0148 0.4354
vn 0.9286 0.2234 0.2965
vn 0.7323 0.2866 -0.6178
vn 0.1598 0.0711 -0.9846
vn -0.7327 0.147 -0.6645
vn -0.9647 0.2605 0.0397
vn 0.7871 0.3727 0.4915
vn 0.5255 0.4518 0.7209
vn 0.5313 0.7655 -0.3629
vn 0.6506 0.7358 -0.1882
vn 0 0.8539 -0.5204
vn 0.0876 0.8374 -0.5396
vn -0.4579 0.785 -0.4172
vn -0.5041 0.7813 -0.368
vn -0.8595 0.4853 0.1601
vn -0.8469 0.5283 0.0609
vn -0.056 0.9431 0.3277
vn 0.339 0.7859 0.5171
vn -0.1008 0.9636 0.2476
vn 0.1838 0.9036 0.3869
vn 0 0.9619 0.2732
vn -0.0688 0.9469 0.3141
vn 0.0179 0.9627 0.2698
vn -0.0075 0.9246 0.3808
vn -0.2889 0.8258 0.4843
vn 0.4502 0.0526 0.8914
vn 0.3436 0.2377 0.9085
vn -0.0033 0.0811 0.9967
vn 0 0 1
vn 0.983 0.155 0.0987
vn 0.0324 -0.0426 -0.9986
vn -0.231 0.1961 -0.953
vn -0.9201 0.0806 -0.3834
vn -0.8023 0.2391 0.547
vn -0.3826 0.2533 0.8885
vn -0.9397 0.0615 0.3365
vn -0.7989 0.1927 0.5698
vn -0.9203 0.1968 0.3382
vn -0.8758 -0.0221 0.4822
vn -0.4262 0.4044 0.8092
vn -0.7623 0.3364 0.553
vn -0.9216 0.2989 -0.2475
vn -0.9657 -0.0134 -0.2593
vn -0.9751 0.219 0.0363
vn -0.8019 0.5646 0.1955
vn -0.8244 0.5625 0.0635
vn -0.3965 0.4201 0.8163
vn -0.8178 0.2554 0.5157
vn 0.3487 0.247 0.9041
vn -0.0178 0.2595 0.9656
vn 0.0378 0.2603 0.9648
vn -0.3542 0.2087 0.9116
vn 0.9268 0.1207 0.3557
vn 0.9267 0.3731 0.0445
vn 0.8131 0.5789 0.0606
vn 0.7995 0.5474 0.247
vn 0.9303 0.3334 0.1527
vn -0.0561 0.9431 0.3277
vn 0.3488 0.5717 0.7426
vn 0.9114 0.1531 0.3819
vn 0.9874 0.0608 0.146
vn 0.9629 0.2676 0.0359
vn 0.8487 0.5259 0.0566
vn 0.8664 0.4496 0.2172
vn 0.0325 0.0083 -0.9994
vn 0.5248 0.7733 -0.3559
vn 0.4996 0.7765 -0.384
vn 0.9062 0.0671 -0.4175
vn -0.2314 0.187 -0.9547
vn -0.1837 0.1781 -0.9667
vn -0.1018 0.8383 -0.5357
vn 0.3126 0.1865 -0.9314
vn -0.8945 0.2468 -0.3727
vn -0.6743 0.7193 -0.1671
vn -0.5183 0.7644 -0.3834
vn -0.6288 0.108 -0.77
vn 0.6717 0.2298 -0.7043
vn 0.6701 0.2395 -0.7026
vn 0.9184 0.277 -0.2825
vn -0.9701 0.2121 0.1182
vn 0.3562 0.1722 -0.9184
vn -0.5241 0.206 0.8264
vn 0.8359 0.1079 -0.5381
vn -0.4728 -0.0157 0.881
vn 0.3958 0.2492 0.8839
vn -0.6688 0.2842 -0.687
vn -0.692 0.1253 -0.7109
vn -0.9635 -0.0319 0.2658
vn 0.9578 0.009 0.2872
vn 0 0.1697 -0.9855
vn 0.807 0.287 -0.516
vn 0.9397 0.3216 -0.1161
vn 0.1443 0.2952 0.9445
vn -0.6806 0.1838 -0.7092
vn -0.6896 0.0902 -0.7186
vn -0.8006 0.059 -0.5963
vn -0.0892 0.2673 0.9595
vn 0.4803 -0.8244 0.2994
vn -0.9533 0.0228 0.3012
vn -0.3217 0.8897 -0.3239
vn 0.6522 0.7083 -0.2702
vn -0.9692 0.2127 -0.1241
vn -0.9415 0.1316 -0.3101
vn -0.1289 0.4017 0.9067
vn 0.686 -0.6782 0.2636
vn 0.1606 0.8806 0.4459
vn 0.8124 0.2579 -0.523
vn 0 0.3315 -0.9435
vn -0.839 0.1296 -0.5285
vn -0.5248 0.1676 0.8346
vn 0.0943 0.0294 0.9951
vn -0.1135 0.1649 0.9798
vn 0.7437 0.2851 -0.6047
vn -0.741 -0.6183 0.262
vn -0.1647 0.1885 -0.9682
vn -0.1597 0.3062 -0.9385
vn 0.4088 0.0494 0.9113
vn -0.6976 -0.3465 -0.6271
vn 0.2294 0.584 -0.7786
vn 0.9294 0.1077 0.353
vn -0.0835 0.4382 0.895
vn 0.7448 0.2802 -0.6056
vn 0 0.468 -0.8837
vn -0.7728 0.2263 0.5929
vn -0.4456 0.1627 -0.8803
vn 0.3552 0.1862 -0.916
vn 0.8867 0.2868 0.3628
vn 0.9243 0.2548 -0.2842
vn 0.955 0.2853 0.0806
vn -0.7999 0.0721 -0.5958
vn -0.1415 0.1487 0.9787
vn -0.6576 0.1974 0.727
vn -0.6987 0.5327 -0.4775
vn -0.5622 0.2567 -0.7861
vn 0.1401 0.3687 0.9189
vn -0.2411 0.1562 0.9579
vn -0.0031 0.898 0.4401
vn -0.0775 0.1346 0.9879
vn 0.9194 0.3701 -0.1332
vn 0.9779 0.1431 -0.1522
vn -0.9683 0.0085 0.2497
vn -0.9503 0.1921 0.245
vn -0.2834 0.1758 -0.9428
vn -0.2836 0.171 -0.9436
vn -0.2781 0.0953 -0.9558
vn -0.9953 0.0906 -0.0338
vn -0.9927 0.0764 -0.0936
vn -0.1865 0.2761 0.9429
vn 0.918 0.3241 0.2286
vn 0.6844 0.2005 -0.701
vn 0.6731 0.268 -0.6893
vn -0.3838 0.1926 -0.9031
vn -0.5361 0.2942 0.7912
vn -0.6486 0.2796 0.7079
vn -0.9455 0.1326 -0.2975
vn -0.9525 0.0533 -0.2998
vn -0.4766 -0.8372 0.2683
vn -0.2152 0.3 0.9294
vn -0.2215 0.1795 0.9585
vn 0.9385 0.3304 -0.1005
vn 0.9885 0.1095 -0.1045
vn -0.183 0.1187 0.9759
vn 0.7728 0.0894 -0.6284
vn 0.8852 0.2921 0.3621
vn 0.9653 0.2326 -0.1187
vn 0.0127 0.3846 0.923
vn 0.307 0.8341 0.4584
vn -0.6982 0.2253 -0.6795
vn -0.7108 0.1274 -0.6918
vn -0.366 -0.89 0.2719
vn -0.775 0.2139 0.5946
vn -0.5232 0.2137 0.825
vn -0.389 0.794 0.4671
vn 0.8709 0.3337 -0.3608
vn -0.9551 0.0729 0.2871
vn -0.0169 0.0663 -0.9977
vn -0.0169 0.0741 -0.9971
vn 0.8287 0.122 -0.5463
vn 0.8133 0.226 -0.5362
vn -0.9703 0.2179 0.1048
vn -0.9942 -0.0074 0.1073
vn 0.8702 0.0143 0.4924
vn 0.8679 0.0607 0.4931
vn 0.2934 -0.9117 0.2875
vn 0.7469 0.0647 -0.6618
vn -0.0924 0.8892 0.448
vn 0.7382 0.6721 -0.0582
vn 0.9367 -0.2135 0.2776
vn 0.7124 0.2553 -0.6537
vn 0.9687 0.2013 -0.1449
vn -0.9409 -0.2296 0.2491
vn -0.9526 0.2813 0.1161
vn 0.713 -0.6496 0.2639
vn -0.3707 0.1618 -0.9145
vn -0.9462 -0.199 0.2551
vn -0.5395 0.5128 0.6678
vn -0.9695 0.2224 -0.1028
vn -0.6668 0.3238 -0.6713
vn -0.5051 -0.8193 0.2714
vn -0.853 0.2953 -0.4303
vn 0.4876 0.07 0.8702
vn -0.6702 -0.7003 0.2458
vn 0.89 0.436 -0.1332
vn 0.0495 0.5684 -0.8213
vn 0.9626 -0.0905 0.2554
vn -0.003 0.8799 0.4751
vn -0.003 0.8871 0.4616
vn 0.696 -0.6671 0.2655
vn -0.4758 -0.8359 0.2738
vn -0.1803 0.2256 0.9574
vn -0.5816 0.2482 0.7746

# Mesh 'g Cylinder001_Cylinder001' with 265 faces
g g Cylinder001_Cylinder001
usemtl wire_086086086
f  1/1/1 2/2/1 3/3/1
f  3/3/2 4/4/2 1/1/2
f  5/5/3 6/6/3 7/7/3
f  8/8/4 9/9/4 10/10/4
f  11/11/5 12/12/5 13/13/5
f  14/14/6 15/15/6 16/16/6
f  2/2/7 17/17/7 18/18/7
f  18/18/8 3/3/8 2/2/8
f  7/7/9 19/19/9 20/20/9
f  21/21/10 22/22/10 23/23/10
f  24/24/11 25/25/11 26/26/11
f  27/27/12 28/28/12 14/14/12
f  18/18/13 17/17/13 29/29/13
f  29/29/14 30/30/14 18/18/14
f  20/20/15 19/19/15 31/31/15
f  31/31/16 32/32/16 20/20/16
f  22/22/17 33/33/17 34/34/17
f  34/34/18 23/23/18 22/22/18
f  25/25/19 35/35/19 36/36/19
f  36/36/20 26/26/20 25/25/20
f  27/27/21 37/37/21 38/38/21
f  38/38/22 28/28/22 27/27/22
f  39/39/23 40/40/23 32/32/23
f  32/32/24 41/41/24 39/39/24
f  31/31/25 34/42/25 41/41/25
f  41/41/26 32/32/26 31/31/26
f  33/33/27 36/36/27 41/43/27
f  41/43/27 34/34/27 33/33/27
f  35/35/28 38/38/28 41/43/28
f  41/43/29 36/36/29 35/35/29
f  38/38/30 37/37/30 42/44/30
f  42/44/31 41/43/31 38/38/31
f  43/45/32 44/46/32 45/47/32
f  45/47/33 44/46/33 46/48/33
f  4/49/34 3/50/34 47/51/34
f  3/50/35 18/52/35 48/53/35
f  18/52/35 30/54/35 49/55/35
f  30/54/35 39/56/35 50/57/35
f  51/58/35 41/59/35 42/60/35
f  52/61/35 53/62/35 54/63/35
f  53/62/35 43/45/35 55/64/35
f  5/5/36 56/65/36 57/66/36
f  9/67/37 6/6/37 58/68/37
f  12/12/38 10/10/38 59/69/38
f  15/15/39 13/13/39 60/70/39
f  44/71/40 61/72/40 62/73/40
f  4/4/41 63/74/41 64/75/41
f  44/71/42 43/76/42 65/77/42
f  65/77/43 61/72/43 44/71/43
f  65/77/44 43/76/44 53/78/44
f  53/78/45 66/79/45 65/77/45
f  53/78/46 52/80/46 67/81/46
f  67/81/47 66/79/47 53/78/47
f  61/72/48 16/16/48 68/82/48
f  69/83/49 16/16/49 61/72/49
f  66/79/50 27/27/50 69/83/50
f  66/79/51 67/81/51 37/37/51
f  37/37/52 27/27/52 66/79/52
f  42/44/30 37/37/30 67/81/30
f  67/81/53 52/80/53 42/44/53
f  70/84/35 42/60/35 52/61/35
f  68/82/54 16/16/54 15/15/54
f  71/85/35 46/48/35 72/86/35
f  73/87/55 46/88/55 44/71/55
f  74/89/56 72/90/56 46/88/56
f  72/86/35 63/91/35 75/92/35
f  63/74/57 72/90/57 74/89/57
f  63/91/58 4/49/58 76/93/58
f  2/2/59 1/1/59 56/65/59
f  77/94/60 78/95/60 17/17/60
f  17/17/61 78/95/61 40/40/61
f  40/40/62 29/29/62 17/17/62
f  79/96/63 1/1/63 4/4/63
f  29/29/64 40/40/64 39/39/64
f  39/39/65 30/30/65 29/29/65
f  39/56/35 41/59/35 51/58/35
f  57/66/66 56/65/66 1/1/66
f  77/94/67 56/65/67 5/5/67
f  80/97/68 20/20/68 78/95/68
f  78/95/69 20/20/69 32/32/69
f  32/32/70 40/40/70 78/95/70
f  6/6/71 9/67/71 8/98/71
f  23/99/9 19/19/9 7/7/9
f  19/19/72 23/99/72 34/42/72
f  34/42/73 31/31/73 19/19/73
f  58/68/74 6/6/74 5/5/74
f  21/21/75 10/10/75 12/12/75
f  11/11/76 26/26/76 22/22/76
f  22/22/77 26/26/77 36/36/77
f  36/36/17 33/33/17 22/22/17
f  59/69/78 10/10/78 9/9/78
f  24/24/79 13/13/79 15/15/79
f  28/28/11 25/25/11 24/24/11
f  28/28/80 38/38/80 35/35/80
f  35/35/81 25/25/81 28/28/81
f  60/70/82 13/13/82 12/12/82
f  7/7/83 8/98/83 23/99/83
f  8/98/84 7/7/84 6/6/84
f  1/1/85 79/96/85 57/66/85
f  68/82/86 62/73/86 61/72/86
f  9/9/87 81/100/87 59/69/87
f  44/71/88 82/101/88 73/87/88
f  5/5/89 83/102/89 58/68/89
f  45/47/35 55/64/35 43/45/35
f  47/51/90 76/93/90 4/49/90
f  64/75/91 84/103/91 4/4/91
f  60/70/92 85/104/92 86/105/92
f  12/12/93 85/104/93 60/70/93
f  76/106/94 47/107/94 87/108/94
f  55/109/95 45/110/95 88/111/95
f  89/112/96 90/113/96 91/114/96
f  92/115/97 93/116/97 94/117/97
f  95/118/98 96/119/98 97/120/98
f  46/88/99 73/87/99 74/89/99
f  24/24/100 14/14/100 28/28/100
f  15/15/101 14/14/101 24/24/101
f  15/15/102 98/121/102 68/82/102
f  99/122/103 100/123/103 84/103/103
f  70/124/104 101/125/104 102/126/104
f  87/108/105 103/127/105 76/106/105
f  104/128/106 105/129/106 86/105/106
f  89/112/107 91/114/107 106/130/107
f  107/131/108 86/105/108 108/132/108
f  98/121/109 109/133/109 110/134/109
f  111/135/110 112/136/110 113/137/110
f  52/61/35 114/138/35 70/84/35
f  70/124/111 114/139/111 115/140/111
f  75/92/35 116/141/35 72/86/35
f  116/142/112 75/143/112 117/144/112
f  94/117/113 58/68/113 83/102/113
f  118/145/114 90/113/114 89/112/114
f  119/146/115 120/147/115 121/148/115
f  111/135/116 122/149/116 123/150/116
f  124/151/117 125/152/117 126/153/117
f  126/153/118 125/152/118 127/154/118
f  83/102/119 128/155/119 94/117/119
f  103/156/35 87/157/35 129/158/35
f  88/111/95 129/159/95 55/109/95
f  49/55/35 48/53/35 18/52/35
f  48/160/120 49/161/120 130/162/120
f  10/10/121 21/21/121 8/8/121
f  23/23/122 8/8/122 21/21/122
f  84/103/123 64/75/123 99/122/123
f  131/163/124 132/164/124 133/165/124
f  89/112/125 106/130/125 134/166/125
f  100/123/126 135/167/126 136/168/126
f  100/123/127 99/122/127 135/167/127
f  90/169/128 118/170/128 137/171/128
f  105/129/129 138/172/129 139/173/129
f  62/73/130 82/101/130 44/71/130
f  85/104/131 104/128/131 86/105/131
f  59/69/132 81/100/132 89/112/132
f  4/4/133 84/103/133 79/96/133
f  95/118/134 57/66/134 79/96/134
f  128/155/135 57/66/135 140/174/135
f  110/134/136 68/82/136 98/121/136
f  127/154/137 141/175/137 126/153/137
f  107/131/138 108/132/138 109/133/138
f  132/164/139 105/129/139 133/165/139
f  139/173/140 142/176/140 105/129/140
f  124/151/141 74/89/141 73/87/141
f  124/151/142 122/149/142 111/135/142
f  129/158/35 143/177/35 144/178/35
f  116/179/143 144/180/143 143/181/143
f  145/182/144 99/122/144 64/75/144
f  78/95/145 77/94/145 80/97/145
f  5/5/146 80/97/146 77/94/146
f  69/83/147 65/77/147 66/79/147
f  61/72/148 65/77/148 69/83/148
f  59/69/149 85/104/149 12/12/149
f  85/104/150 59/69/150 146/183/150
f  147/184/151 91/114/151 90/113/151
f  57/66/135 95/118/135 140/174/135
f  119/146/152 68/82/152 110/134/152
f  119/146/153 121/148/153 68/82/153
f  123/150/154 112/136/154 111/135/154
f  96/119/155 84/103/155 148/185/155
f  84/103/155 100/123/155 148/185/155
f  58/68/156 81/186/156 9/67/156
f  81/186/157 58/68/157 137/171/157
f  59/69/158 89/112/158 146/183/158
f  121/148/159 120/147/159 149/187/159
f  123/150/160 62/73/160 149/187/160
f  109/133/161 98/121/161 60/70/161
f  60/70/162 98/121/162 15/15/162
f  150/188/163 130/162/163 49/161/163
f  87/157/35 102/189/35 129/158/35
f  74/89/164 64/75/164 63/74/164
f  145/182/165 64/75/165 151/190/165
f  128/155/166 83/102/166 57/66/166
f  57/66/167 83/102/167 5/5/167
f  111/135/168 125/152/168 124/151/168
f  94/117/169 128/155/169 92/115/169
f  96/119/170 79/96/170 84/103/170
f  79/96/171 96/119/171 95/118/171
f  64/75/165 74/89/165 151/190/165
f  74/89/172 124/151/172 151/190/172
f  88/111/173 45/110/173 71/191/173
f  46/48/35 71/85/35 45/47/35
f  13/13/174 24/24/174 11/11/174
f  26/26/175 11/11/175 24/24/175
f  50/192/176 51/193/176 102/126/176
f  51/58/35 50/57/35 39/56/35
f  123/150/177 82/101/177 62/73/177
f  73/87/178 82/101/178 123/150/178
f  76/93/35 75/92/35 63/91/35
f  75/143/179 76/106/179 103/127/179
f  94/117/180 93/116/180 152/194/180
f  153/195/181 120/147/181 154/196/181
f  22/22/182 21/21/182 11/11/182
f  12/12/183 11/11/183 21/21/183
f  7/7/184 80/97/184 5/5/184
f  20/20/185 80/97/185 7/7/185
f  14/14/186 69/83/186 27/27/186
f  16/16/187 69/83/187 14/14/187
f  17/17/188 2/2/188 77/94/188
f  56/65/189 77/94/189 2/2/189
f  102/126/190 51/193/190 70/124/190
f  42/60/35 70/84/35 51/58/35
f  105/129/191 142/176/191 133/165/191
f  72/86/35 116/141/35 71/85/35
f  143/181/192 71/191/192 116/179/192
f  93/116/193 155/197/193 152/194/193
f  55/64/35 54/63/35 53/62/35
f  54/198/194 55/109/194 129/159/194
f  58/68/195 94/117/195 137/171/195
f  156/199/196 94/117/196 152/194/196
f  48/53/35 47/51/35 3/50/35
f  47/107/197 48/160/197 157/200/197
f  62/73/159 121/148/159 149/187/159
f  121/148/198 62/73/198 68/82/198
f  158/201/199 115/140/199 114/139/199
f  102/189/35 101/202/35 129/158/35
f  85/104/200 146/183/200 104/128/200
f  87/157/35 130/203/35 150/204/35
f  157/200/201 87/108/201 47/107/201
f  120/147/202 153/195/202 149/187/202
f  108/132/203 86/105/203 132/164/203
f  132/164/204 86/105/204 105/129/204
f  50/57/35 49/55/35 30/54/35
f  49/161/205 50/192/205 150/188/205
f  107/131/206 60/70/206 86/105/206
f  60/70/207 107/131/207 109/133/207
f  130/162/208 157/200/208 48/160/208
f  87/157/35 157/205/35 130/203/35
f  137/171/209 94/117/209 156/199/209
f  137/171/210 156/199/210 90/169/210
f  115/206/35 158/207/35 129/158/35
f  129/159/211 158/201/211 54/198/211
f  103/127/212 117/144/212 75/143/212
f  103/156/35 129/158/35 117/208/35
f  129/158/35 88/209/35 143/177/35
f  71/191/213 143/181/213 88/111/213
f  54/63/35 114/138/35 52/61/35
f  114/139/214 54/198/214 158/201/214
f  87/157/35 150/204/35 102/189/35
f  102/126/215 150/188/215 50/192/215
f  101/202/35 115/206/35 129/158/35
f  115/140/104 101/125/104 70/124/104
f  73/87/216 122/149/216 124/151/216
f  123/150/217 122/149/217 73/87/217
f  129/158/35 144/178/35 117/208/35
f  117/144/143 144/210/143 116/142/143
f  81/100/114 118/145/114 89/112/114
f  81/186/128 137/171/128 118/170/128

