# File produced by Open Asset Import Library (http://www.assimp.sf.net)
# (assimp v3.1.68452469)

mtllib BossShield.mtl

# 49 vertex positions
v  -8.3171 38.1745 34.4696
v  -12.4733 38.1745 32.3482
v  -10.5722 26.7915 32.3482
v  10.4066 46.2235 34.4697
v  14.006 49.5575 32.3482
v  8.812 57.8905 32.3482
v  1.7169 22.0765 34.4697
v  1.7169 15.4084 32.3482
v  8.812 18.4585 32.3482
v  15.9071 38.1745 32.3482
v  11.7509 38.1745 34.4696
v  10.4066 30.1255 34.4696
v  -10.5722 49.5575 32.3482
v  -6.9728 46.2235 34.4697
v  -3.3001 52.1158 34.4696
v  6.215 34.008 35.8032
v  -0.8801 45.3911 35.8032
v  1.7169 54.2725 34.4696
v  1.7169 60.9406 32.3482
v  -5.3782 57.8905 32.3482
v  -6.9728 30.1255 34.4696
v  1.7169 38.1745 36.2581
v  -2.7812 34.008 35.8032
v  -0.8801 30.958 35.8032
v  -3.3001 24.2332 34.4697
v  -5.3782 18.4585 32.3482
v  14.006 26.7915 32.3482
v  16.7679 24.2332 29.5835
v  19.0963 38.1745 29.5835
v  6.7339 24.2332 34.4697
v  6.7339 52.1158 34.4696
v  -2.7812 42.341 35.8032
v  -3.4771 38.1745 35.8032
v  -6.9728 62.3216 29.5835
v  -13.3341 52.1158 29.5835
v  4.3139 30.958 35.8032
v  6.9109 38.1745 35.8032
v  6.215 42.341 35.8032
v  1.7169 46.5075 35.8032
v  4.3139 45.3911 35.8032
v  1.7169 66.0571 29.5835
v  1.7169 10.2919 29.5835
v  10.4066 14.0274 29.5835
v  -6.9728 14.0275 29.5835
v  10.4066 62.3216 29.5835
v  -15.6625 38.1745 29.5835
v  16.7679 52.1158 29.5835
v  -13.3341 24.2332 29.5835
v  1.7169 29.8416 35.8032

# 53 UV coordinates
vt 0.5431 0.5838 0
vt 0.6168 0.6204 0
vt 0.5027 0.784 0
vt 0.2667 0.3315 0
vt 0.2171 0.2545 0
vt 0.3431 0.1419 0
vt 0.2748 0.7718 0
vt 0.2332 0.8831 0
vt 0.1363 0.7924 0
vt 0.1273 0.4316 0
vt 0.204 0.4559 0
vt 0.1826 0.5933 0
vt 0.6429 0.3627 0
vt 0.5608 0.4086 0
vt 0.5215 0.2951 0
vt 0.2747 0.5539 0
vt 0.4517 0.3993 0
vt 0.447 0.2388 0
vt 0.4754 0.1219 0
vt 0.5838 0.2014 0
vt 0.4636 0.7014 0
vt 0.3743 0.511 0
vt 0.4213 0.6093 0
vt 0.3711 0.6457 0
vt 0.3671 0.7692 0
vt 0.3653 0.8791 0
vt 0.0976 0.628 0
vt 0.02 0.6562 0
vt 0.0568 0.4093 0
vt 0.2082 0.7082 0
vt 0.3548 0.2523 0
vt 0.4711 0.459 0
vt 0.466 0.5343 0
vt 0.6388 0.5689 0
vt 0.64 0.1206 0
vt 0.7177 0.3242 0
vt 0.2878 0.614 0
vt 0.2862 0.4824 0
vt 0.3188 0.4175 0
vt 0.413 0.3693 0
vt 0.3648 0.3761 0
vt 0.4615 0.5465 0
vt 0.5553 0.5539 0
vt 0.4986 0.02 0
vt 0.1986 0.98 0
vt 0.0718 0.8649 0
vt 0.3674 0.9741 0
vt 0.3291 0.0464 0
vt 0.7148 0.5797 0
vt 0.1699 0.188 0
vt 0.54 0.8552 0
vt 0.6814 0.6549 0
vt 0.3227 0.6474 0

# 48 vertex normals
vn -0.4533 -0.0757 0.8881
vn 0.342 0.2132 0.9152
vn 0.1292 -0.3006 0.9449
vn 0.4533 -0.0757 0.8881
vn -0.342 0.2132 0.9152
vn 0.2654 -0.0443 0.9631
vn -0.1962 0.1223 0.9729
vn -0.1292 0.3006 0.9449
vn -0.0639 -0.0398 0.9972
vn -0.1292 -0.3006 0.9449
vn 0.6511 -0.1088 0.7511
vn 0.342 -0.2132 0.9152
vn 0.1292 0.3006 0.9449
vn -0.0872 0.0146 0.9961
vn -0.342 -0.2132 0.9152
vn 0.4533 0.0757 0.8881
vn -0.4533 0.0757 0.8881
vn -0.1962 -0.1223 0.9729
vn -0.5082 0.3168 0.8008
vn -0.2002 0.4658 0.862
vn 0.5082 -0.3168 0.8008
vn -0.0726 -0.1688 0.983
vn 0.1962 -0.1223 0.9729
vn 0.1962 0.1223 0.9729
vn -0.0726 0.1688 0.983
vn -0.2654 -0.0443 0.9631
vn -0.2654 0.0443 0.9631
vn 0.0872 -0.0146 0.9961
vn 0.0639 0.0398 0.9972
vn 0.2002 0.4658 0.862
vn 0.2002 -0.4658 0.862
vn -0.2002 -0.4658 0.862
vn -0.5082 -0.3168 0.8008
vn 0.5082 0.3168 0.8008
vn -0.6511 0.1088 0.7511
vn 0.6511 0.1088 0.7511
vn -0.6511 -0.1088 0.7511
vn -0.0234 0.0545 0.9982
vn 0.0726 -0.1688 0.983
vn 0.0234 -0.0545 0.9982
vn 0.0726 0.1688 0.983
vn 0.2654 0.0443 0.9631
vn -0.0639 0.0398 0.9972
vn 0.0639 -0.0398 0.9972
vn 0.0234 0.0545 0.9982
vn -0.0234 -0.0545 0.9982
vn 0.0872 0.0146 0.9961
vn -0.0872 -0.0146 0.9961

# Mesh 'g Cylinder001_Cylinder001' with 84 faces
g g Cylinder001_Cylinder001
usemtl wire_086086086
f  1/1/1 2/2/1 3/3/1
f  4/4/2 5/5/2 6/6/2
f  7/7/3 8/8/3 9/9/3
f  10/10/4 11/11/4 12/12/4
f  13/13/5 14/14/5 15/15/5
f  16/16/6 12/12/6 11/11/6
f  17/17/7 15/15/7 14/14/7
f  18/18/8 19/19/8 20/20/8
f  3/3/1 21/21/1 1/1/1
f  22/22/9 23/23/9 24/24/9
f  25/25/10 26/26/10 8/8/10
f  27/27/11 28/28/11 29/29/11
f  30/30/12 9/9/12 27/27/12
f  31/31/13 6/6/13 19/19/13
f  22/22/14 32/32/14 33/33/14
f  6/6/2 31/31/2 4/4/2
f  21/21/15 3/3/15 26/26/15
f  11/11/16 10/10/16 5/5/16
f  14/14/17 13/13/17 2/34/17
f  8/8/10 7/7/10 25/25/10
f  25/25/18 24/24/18 23/23/18
f  20/20/19 34/35/19 35/36/19
f  34/35/20 20/20/20 19/19/20
f  28/28/21 27/27/21 9/9/21
f  24/24/22 25/25/22 7/7/22
f  36/37/23 30/30/23 12/12/23
f  11/11/6 37/38/6 16/16/6
f  38/39/24 4/4/24 31/31/24
f  39/40/25 18/18/25 15/15/25
f  31/31/24 40/41/24 38/39/24
f  33/42/26 1/1/26 21/21/26
f  1/43/27 33/33/27 32/32/27
f  22/22/28 16/16/28 37/38/28
f  22/22/29 38/39/29 40/41/29
f  19/19/20 41/44/20 34/35/20
f  41/44/30 19/19/30 6/6/30
f  8/8/31 42/45/31 43/46/31
f  42/45/32 8/8/32 26/26/32
f  9/9/21 43/46/21 28/28/21
f  43/46/31 9/9/31 8/8/31
f  44/47/33 26/26/33 3/3/33
f  26/26/32 44/47/32 42/45/32
f  45/48/34 6/6/34 5/5/34
f  6/6/30 45/48/30 41/44/30
f  35/36/19 13/13/19 20/20/19
f  13/13/35 35/36/35 46/49/35
f  5/5/34 47/50/34 45/48/34
f  47/50/36 5/5/36 10/10/36
f  3/3/33 48/51/33 44/47/33
f  48/51/37 3/3/37 2/2/37
f  29/29/11 10/10/11 27/27/11
f  10/10/36 29/29/36 47/50/36
f  2/2/37 46/52/37 48/51/37
f  46/49/35 2/34/35 13/13/35
f  15/15/25 17/17/25 39/40/25
f  22/22/38 39/40/38 17/17/38
f  30/30/39 36/37/39 49/53/39
f  22/22/40 49/53/40 36/37/40
f  20/20/8 15/15/8 18/18/8
f  15/15/5 20/20/5 13/13/5
f  49/53/39 7/7/39 30/30/39
f  9/9/3 30/30/3 7/7/3
f  27/27/12 12/12/12 30/30/12
f  12/12/4 27/27/4 10/10/4
f  32/32/27 14/14/27 1/43/27
f  2/34/17 1/43/17 14/14/17
f  40/41/41 31/31/41 18/18/41
f  19/19/13 18/18/13 31/31/13
f  5/5/16 4/4/16 11/11/16
f  37/38/42 11/11/42 4/4/42
f  26/26/15 25/25/15 21/21/15
f  23/23/18 21/21/18 25/25/18
f  22/22/43 17/17/43 32/32/43
f  14/14/7 32/32/7 17/17/7
f  22/22/44 36/37/44 16/16/44
f  12/12/23 16/16/23 36/37/23
f  18/18/41 39/40/41 40/41/41
f  22/22/45 40/41/45 39/40/45
f  7/7/22 49/53/22 24/24/22
f  22/22/46 24/24/46 49/53/46
f  22/22/47 37/38/47 38/39/47
f  4/4/42 38/39/42 37/38/42
f  22/22/48 33/42/48 23/23/48
f  21/21/26 23/23/26 33/42/26

